<svg id="לינקים_לכתבות_הבאות" data-name="לינקים לכתבות הבאות" xmlns="http://www.w3.org/2000/svg" viewBox="0 0 1280 241.79"><defs><style>.cls-1{fill:#f9e5e0;}.cls-2{fill:#333;}.cls-3{fill:#867975;}</style></defs><title>artNextSect</title><rect class="cls-1" width="1280" height="241.79"/><path class="cls-2" d="M872.91,2569.48v-12.56h-6.23l0.88-3.39h7.37a1.79,1.79,0,0,1,1.78,1.78v14.17h-3.81Z" transform="translate(0 -2422.16)"/><path class="cls-2" d="M888.2,2553.53a1.9,1.9,0,0,1,1.89,2.46l-3,10.61h-3.7l2.71-9.68h-7v-6.29l3.83-.88v3.78h5.24Z" transform="translate(0 -2422.16)"/><path class="cls-2" d="M906.55,2562.29a5.41,5.41,0,0,1-5.48,4.31h-5.41l-2.29-9.68h-1.72l0.88-3.39h2.11a1.71,1.71,0,0,1,1.87,1.43l1.23,5.15,0.86-3.19h-1.12l0.88-3.39h2.95a1.34,1.34,0,0,1,1.28,1.76l-1.65,6.18h-2.88l0.42,1.74h2.73a1.66,1.66,0,0,0,1.74-1.32l1.39-5h-1.14l0.88-3.39H907a1.5,1.5,0,0,1,1.52,1.41,1.54,1.54,0,0,1-.07.53Z" transform="translate(0 -2422.16)"/><path class="cls-2" d="M924.44,2566.6v-9.68h-7.61l0.88-3.39h8.76a1.79,1.79,0,0,1,1.8,1.78v11.29h-3.83Zm-7.61,0v-7.33h3.74v7.33h-3.74Z" transform="translate(0 -2422.16)"/><path class="cls-2" d="M930.46,2566.6v-3.39h3.17v-6.29H931.3l0.88-3.39h3.48a1.81,1.81,0,0,1,1.8,1.78v11.29h-7Z" transform="translate(0 -2422.16)"/><path class="cls-2" d="M944.06,2553.53a1.66,1.66,0,0,1,1.65,1.65v6.12h-3.83v-4.38h-2.33l0.88-3.39h3.63Z" transform="translate(0 -2422.16)"/><path class="cls-2" d="M953.85,2566.6l-0.62-3.32-3.78,4.18-2.57-2.31,4.18-4.62,1.78,0.66-0.55-4.27h-2.9l0.88-3.39H954a1.59,1.59,0,0,1,1.63,1.14c0.11,0.42,2,11.92,2,11.92h-3.72Z" transform="translate(0 -2422.16)"/><path class="cls-2" d="M960.93,2566.6v-9.68h-1.83l0.88-3.39h3a1.79,1.79,0,0,1,1.78,1.78v11.29h-3.81Z" transform="translate(0 -2422.16)"/><path class="cls-2" d="M967.25,2567v-3.43l6.23-.64v-6.05h-6.23l0.88-3.39h7.37a1.79,1.79,0,0,1,1.78,1.78v7.33l1.56-.11v3.39Z" transform="translate(0 -2422.16)"/><path class="cls-2" d="M986.83,2567v-3.43l6.23-.64v-6.05h-6.23l0.88-3.39h7.37a1.79,1.79,0,0,1,1.78,1.78v7.33l1.56-.11v3.39Z" transform="translate(0 -2422.16)"/><path class="cls-2" d="M1002,2566.6v-9.68h-1.83l0.88-3.39h3a1.79,1.79,0,0,1,1.78,1.78v11.29H1002Z" transform="translate(0 -2422.16)"/><path class="cls-2" d="M1022.82,2562.29a5.41,5.41,0,0,1-5.48,4.31h-5.41l-2.29-9.68h-1.72l0.88-3.39h2.11a1.71,1.71,0,0,1,1.87,1.43l1.23,5.15,0.86-3.19h-1.12l0.88-3.39h2.95a1.34,1.34,0,0,1,1.28,1.76l-1.65,6.18h-2.88l0.42,1.74h2.73a1.66,1.66,0,0,0,1.74-1.32l1.39-5h-1.14l0.88-3.39h2.9a1.49,1.49,0,0,1,1.45,1.94Z" transform="translate(0 -2422.16)"/><path class="cls-2" d="M1032.83,2567v-3.43l6.23-.64v-6.05h-6.23l0.88-3.39h7.37a1.79,1.79,0,0,1,1.78,1.78v7.33l1.56-.11v3.39Z" transform="translate(0 -2422.16)"/><path class="cls-2" d="M1054.23,2566.6v-9.68h-7.61l0.88-3.39h8.76a1.79,1.79,0,0,1,1.8,1.78v11.29h-3.83Zm-7.61,0v-7.33h3.74v7.33h-3.74Z" transform="translate(0 -2422.16)"/><path class="cls-2" d="M1071,2567l-6.21-7-0.4,6.53h-3.76l0.4-7.24,2.22-1-2.64-3,2.77-2.46,6.21,7.08,0.4-3h-1.83l0.77-3.39h2.29c1.58,0,2.6.81,2.4,2.4l-0.66,5.08h-2.35l3.17,3.56Z" transform="translate(0 -2422.16)"/><path class="cls-2" d="M1085.41,2566.6v-9.68h-3.76v9.68h-6.54v-3.39h2.73v-6.29h-2.33l0.88-3.39h11a1.79,1.79,0,0,1,1.8,1.78v11.29h-3.83Z" transform="translate(0 -2422.16)"/><path class="cls-2" d="M1099.6,2566.6v-9.68H1092l0.88-3.39h8.76a1.79,1.79,0,0,1,1.8,1.78v11.29h-3.83Zm-7.61,0v-7.33h3.74v7.33H1092Z" transform="translate(0 -2422.16)"/><path class="cls-2" d="M1114.91,2553.53a1.9,1.9,0,0,1,1.89,2.46l-3,10.61h-3.7l2.71-9.68h-7v-6.29l3.83-.88v3.78h5.24Z" transform="translate(0 -2422.16)"/><path class="cls-2" d="M1131.08,2569.48v-12.56h-6.23l0.88-3.39h7.37a1.79,1.79,0,0,1,1.78,1.78v14.17h-3.81Z" transform="translate(0 -2422.16)"/><path class="cls-2" d="M1141.49,2553.53a1.66,1.66,0,0,1,1.65,1.65v6.12h-3.83v-4.38H1137l0.88-3.39h3.63Z" transform="translate(0 -2422.16)"/><path class="cls-2" d="M1155.94,2567l-6.21-7-0.4,6.53h-3.76l0.4-7.24,2.22-1-2.64-3,2.77-2.46,6.21,7.08,0.4-3h-1.83l0.77-3.39h2.29c1.58,0,2.6.81,2.4,2.4l-0.66,5.08h-2.35l3.17,3.56Z" transform="translate(0 -2422.16)"/><path class="cls-2" d="M909.53,2590.61v-4.28h1.13v4.28h-1.13Zm5.55,0H914v-6.17h-4.4l0.24-.94h4.75a0.53,0.53,0,0,1,.54.53v6.57Z" transform="translate(0 -2422.16)"/><path class="cls-2" d="M922.4,2588.13h-0.83l1.46,1.75-0.77.74-3.92-4.7-0.58,4.68h-1.1l0.58-4.59,0.9-.35-1.4-1.62,0.79-.71,3.86,4.58,0.72-3.47h-1.24l0.23-.94h1.48a0.61,0.61,0,0,1,.61.78Z" transform="translate(0 -2422.16)"/><path class="cls-2" d="M925.72,2587.11v-2.66h-1.26l0.23-.94h1.69a0.49,0.49,0,0,1,.49.5v3.09h-1.15Z" transform="translate(0 -2422.16)"/><path class="cls-2" d="M933.35,2590.61h-1.13v-6.17h-4l0.23-.94h4.34a0.54,0.54,0,0,1,.54.53v6.57Z" transform="translate(0 -2422.16)"/><path class="cls-2" d="M941,2583.51a0.7,0.7,0,0,1,.73.72,1.5,1.5,0,0,1-.08.38l-1.59,5.48-1.1-.34,1.55-5.31H937v7.77h-1.12v-7.77H935l0.23-.94H941Z" transform="translate(0 -2422.16)"/><path class="cls-2" d="M952.23,2590.61v-6.17h-3.35v6.17h-2.6v-0.95h1.49v-5.22h-1l0.23-.94h5.85a0.53,0.53,0,0,1,.54.53v6.57h-1.13Z" transform="translate(0 -2422.16)"/><path class="cls-2" d="M956,2590.61v-6.17h-1l0.24-.94h1.33a0.53,0.53,0,0,1,.53.53v6.57H956Z" transform="translate(0 -2422.16)"/><path class="cls-2" d="M964.87,2583.51a0.7,0.7,0,0,1,.73.72,1.5,1.5,0,0,1-.08.38l-1.59,5.48-1.1-.34,1.55-5.31h-3.53v7.77h-1.12v-7.77h-0.89l0.23-.94h5.8Z" transform="translate(0 -2422.16)"/><path class="cls-2" d="M971.52,2584.44v6.17h-1.14v-6.17H966.8l0.24-.94h5.61v0.94h-1.14Z" transform="translate(0 -2422.16)"/><path class="cls-2" d="M981.67,2584.56c-2.22,2.22-2.67,3.18-2.67,4.89v1.15h-1.22v-1.15c0-2.16,1.25-3.57,2.71-5h-3.72l0.23-.94h4.68v1.06Z" transform="translate(0 -2422.16)"/><path class="cls-2" d="M990.23,2591.41v-8.78h1v8.78h-1Z" transform="translate(0 -2422.16)"/><path class="cls-2" d="M1001.2,2590.62v-6l-1.54,1-0.43-.74,2.07-1.39h1v7.11h-1.15Z" transform="translate(0 -2422.16)"/><path class="cls-2" d="M1009.17,2584.56c-2.22,2.22-2.67,3.18-2.67,4.89v1.15h-1.22v-1.15c0-2.16,1.25-3.57,2.71-5h-3.72l0.23-.94h4.68v1.06Z" transform="translate(0 -2422.16)"/><path class="cls-2" d="M1010.47,2590.61v-1.25h1.25v1.25h-1.25Z" transform="translate(0 -2422.16)"/><path class="cls-2" d="M1016.18,2590.78c-1.74,0-2.66-1-2.66-2.41a4.55,4.55,0,0,1,1.13-2.77l1.7-2.41,1.16,0.3-1.89,2.75a2.12,2.12,0,0,1,.62-0.1A2.34,2.34,0,1,1,1016.18,2590.78Zm0-3.77a1.44,1.44,0,1,0,0,2.88,1.42,1.42,0,0,0,1.55-1.45A1.44,1.44,0,0,0,1016.15,2587Z" transform="translate(0 -2422.16)"/><path class="cls-2" d="M1020.38,2590.61v-1.25h1.25v1.25h-1.25Z" transform="translate(0 -2422.16)"/><path class="cls-2" d="M1024.49,2589.71h3.59v0.9h-4.67v-0.52c0-3.41,3.78-3,3.78-4.8a1.07,1.07,0,0,0-1.12-.95,5.36,5.36,0,0,0-2.3.56v-1a5.94,5.94,0,0,1,2.1-.53c1.39,0,2.4.71,2.4,2C1028.27,2587.66,1024.63,2587.46,1024.49,2589.71Z" transform="translate(0 -2422.16)"/><path class="cls-2" d="M1032.29,2590.76c-2.3,0-2.48-1.16-2.48-3.79s0.25-3.57,2.48-3.57,2.5,1.05,2.5,3.57S1034.6,2590.76,1032.29,2590.76Zm1.42-3.67c0-.67,0-1,0-1.31a1.57,1.57,0,0,0-.44-1.24,2.85,2.85,0,0,0-.95-0.12,2.54,2.54,0,0,0-.94.12,1.6,1.6,0,0,0-.44,1.22c0,0.29,0,.68,0,1.32s0,1,0,1.33a1.62,1.62,0,0,0,.44,1.21,2.84,2.84,0,0,0,.94.12,2.77,2.77,0,0,0,.94-0.12,1.49,1.49,0,0,0,.46-1.22C1033.69,2588.1,1033.7,2587.77,1033.7,2587.09Z" transform="translate(0 -2422.16)"/><path class="cls-2" d="M1038.14,2590.62v-6l-1.54,1-0.43-.74,2.07-1.39h1v7.11h-1.15Z" transform="translate(0 -2422.16)"/><path class="cls-2" d="M1044.12,2590.78c-1.74,0-2.66-1-2.66-2.41a4.55,4.55,0,0,1,1.13-2.77l1.7-2.41,1.16,0.3-1.89,2.75a2.12,2.12,0,0,1,.62-0.1A2.34,2.34,0,1,1,1044.12,2590.78Zm0-3.77a1.44,1.44,0,1,0,0,2.88,1.42,1.42,0,0,0,1.55-1.45A1.44,1.44,0,0,0,1044.08,2587Z" transform="translate(0 -2422.16)"/><path class="cls-2" d="M1055.58,2591.41v-8.78h1v8.78h-1Z" transform="translate(0 -2422.16)"/><path class="cls-2" d="M1066,2592.18V2585h-1.1l0.4-1.51H1067a0.82,0.82,0,0,1,.83.82v7.88H1066Z" transform="translate(0 -2422.16)"/><path class="cls-2" d="M1073.21,2590.61V2585h-4.15l0.4-1.51h4.73a0.81,0.81,0,0,1,.82.82v6.31h-1.79Z" transform="translate(0 -2422.16)"/><path class="cls-2" d="M1077.39,2590.61V2585h-1.08l0.4-1.51h1.67a0.82,0.82,0,0,1,.83.82v6.31h-1.81Z" transform="translate(0 -2422.16)"/><path class="cls-2" d="M1087.06,2583.49a0.83,0.83,0,0,1,.82,1.08l-1.73,5.63-1.6-.58L1086,2585h-2.77v7.18h-1.76V2585h-1l0.4-1.51h6.26Z" transform="translate(0 -2422.16)"/><path class="cls-2" d="M1092.43,2590.61v-4.08h1.78v4.08h-1.78Zm4.45,0V2585h-4.39l0.4-1.51h4.91a0.85,0.85,0,0,1,.88.82v6.31h-1.79Z" transform="translate(0 -2422.16)"/><path class="cls-2" d="M1106,2587.93a3.15,3.15,0,0,1-2.58,2.45c-0.43.11-2.24,0.64-2.83,0.8l-0.36-1.5,1.57-.46-1-4.23h-1l0.4-1.51h1.32a0.76,0.76,0,0,1,.8.65l1.09,4.61,0.14,0a1,1,0,0,0,.71-0.79l0.67-2.9H1104l0.4-1.51h1.46a0.89,0.89,0,0,1,.9,1.15Z" transform="translate(0 -2422.16)"/><path class="cls-2" d="M1108.92,2590.61V2585h-1.08l0.4-1.51h1.67a0.82,0.82,0,0,1,.83.82v6.31h-1.81Z" transform="translate(0 -2422.16)"/><path class="cls-2" d="M1115.63,2590.61h-3.69v-1.51h1.93V2585h-1.34l0.4-1.51h1.88a0.82,0.82,0,0,1,.83.82v6.31Z" transform="translate(0 -2422.16)"/><path class="cls-2" d="M506.87,2566.6v-9.68h-1.74l0.88-3.39h10.3a1.79,1.79,0,0,1,1.78,1.78v11.29H506.87Zm7.44-9.68h-3.63v6.29h3.63v-6.29Z" transform="translate(0 -2422.16)"/><path class="cls-2" d="M529.57,2553.53a1.9,1.9,0,0,1,1.89,2.46l-3,10.61h-3.7l2.71-9.68h-7v-6.29l3.83-.88v3.78h5.24Z" transform="translate(0 -2422.16)"/><path class="cls-2" d="M547.92,2562.29a5.41,5.41,0,0,1-5.48,4.31H537l-2.29-9.68H533l0.88-3.39H536a1.71,1.71,0,0,1,1.87,1.43l1.23,5.15,0.86-3.19h-1.12l0.88-3.39h2.95a1.34,1.34,0,0,1,1.28,1.76l-1.65,6.18h-2.88l0.42,1.74h2.73a1.66,1.66,0,0,0,1.74-1.32l1.39-5h-1.14l0.88-3.39h2.9a1.5,1.5,0,0,1,1.52,1.41,1.54,1.54,0,0,1-.07.53Z" transform="translate(0 -2422.16)"/><path class="cls-2" d="M564.44,2558.74v7.85h-6.1l0.48-3.39h1.76v-5a1.54,1.54,0,0,0-1.63-1.52,1.69,1.69,0,0,0-1.65,1.36l-1.54,8.54h-3.92l1.67-9.11-2.16-1.5,2-3,2.11,1.54a5.54,5.54,0,0,1,3.5-1.23A5.23,5.23,0,0,1,564.44,2558.74Z" transform="translate(0 -2422.16)"/><path class="cls-2" d="M578.92,2569.48v-12.56h-6.23l0.88-3.39h7.37a1.79,1.79,0,0,1,1.78,1.78v14.17h-3.81Z" transform="translate(0 -2422.16)"/><path class="cls-2" d="M594.21,2553.53a1.9,1.9,0,0,1,1.89,2.46l-3,10.61h-3.7l2.71-9.68h-7v-6.29l3.83-.88v3.78h5.24Z" transform="translate(0 -2422.16)"/><path class="cls-2" d="M612.56,2562.29a5.41,5.41,0,0,1-5.48,4.31h-5.41l-2.29-9.68h-1.72l0.88-3.39h2.11a1.71,1.71,0,0,1,1.87,1.43l1.23,5.15,0.86-3.19h-1.12l0.88-3.39h2.95a1.34,1.34,0,0,1,1.28,1.76l-1.65,6.18h-2.88l0.42,1.74h2.73a1.66,1.66,0,0,0,1.74-1.32l1.39-5h-1.14l0.88-3.39H613a1.49,1.49,0,0,1,1.45,1.94Z" transform="translate(0 -2422.16)"/><path class="cls-2" d="M630.75,2569.48v-12.56h-3.37v4.2h-3.61v-4.2h-1.39l0.88-3.39h9.48a1.79,1.79,0,0,1,1.8,1.78v14.17h-3.81Z" transform="translate(0 -2422.16)"/><path class="cls-2" d="M638.71,2566.6v-9.68h-1.83l0.88-3.39h3a1.79,1.79,0,0,1,1.78,1.78v11.29h-3.81Z" transform="translate(0 -2422.16)"/><path class="cls-2" d="M650.79,2566.6l-0.62-3.32-3.79,4.18-2.57-2.31,4.18-4.62,1.78,0.66-0.55-4.27h-2.9l0.88-3.39h3.72a1.59,1.59,0,0,1,1.63,1.14c0.11,0.42,2,11.92,2,11.92h-3.72Z" transform="translate(0 -2422.16)"/><path class="cls-2" d="M664.1,2566.6v-9.68h-7.61l0.88-3.39h8.76a1.79,1.79,0,0,1,1.8,1.78v11.29H664.1Zm-7.61,0v-7.33h3.74v7.33h-3.74Z" transform="translate(0 -2422.16)"/><path class="cls-2" d="M683.24,2566.6v-9.68h-7.17l0.88-3.39h8.29a1.81,1.81,0,0,1,1.83,1.78v11.29h-3.83Z" transform="translate(0 -2422.16)"/><path class="cls-2" d="M693.67,2553.53a1.66,1.66,0,0,1,1.65,1.65v6.12h-3.83v-4.38h-2.33l0.88-3.39h3.63Z" transform="translate(0 -2422.16)"/><path class="cls-2" d="M706.78,2566.6v-9.68h-3.52v9.68h-3.81v-9.68h-1.94l0.88-3.39h10.39a1.79,1.79,0,0,1,1.78,1.78v11.29h-3.78Z" transform="translate(0 -2422.16)"/><path class="cls-2" d="M725.61,2558.74v7.85h-6.1l0.48-3.39h1.76v-5a1.54,1.54,0,0,0-1.63-1.52,1.69,1.69,0,0,0-1.65,1.36l-1.54,8.54H713l1.67-9.11-2.16-1.5,2-3,2.11,1.54a5.54,5.54,0,0,1,3.5-1.23A5.23,5.23,0,0,1,725.61,2558.74Z" transform="translate(0 -2422.16)"/><path class="cls-2" d="M735.64,2566.6v-9.68H728l0.88-3.39h8.76a1.79,1.79,0,0,1,1.8,1.78v11.29h-3.83Zm-7.61,0v-7.33h3.74v7.33H728Z" transform="translate(0 -2422.16)"/><path class="cls-2" d="M755.88,2566.6v-9.68h-7.61l0.88-3.39h8.76a1.79,1.79,0,0,1,1.8,1.78v11.29h-3.83Zm-7.61,0v-7.33H752v7.33h-3.74Z" transform="translate(0 -2422.16)"/><path class="cls-2" d="M774.76,2558.74v7.85h-6.1l0.48-3.39h1.76v-5a1.54,1.54,0,0,0-1.63-1.52,1.69,1.69,0,0,0-1.65,1.36l-1.54,8.54h-3.92l1.67-9.11-2.16-1.5,2-3,2.11,1.54a5.54,5.54,0,0,1,3.5-1.23A5.23,5.23,0,0,1,774.76,2558.74Z" transform="translate(0 -2422.16)"/><path class="cls-2" d="M572.85,2588.69a5.41,5.41,0,0,1-5.48,4.31H562l-2.29-9.68H558l0.88-3.39h2.11a1.71,1.71,0,0,1,1.87,1.43l1.23,5.15,0.86-3.19h-1.12l0.88-3.39h2.95a1.34,1.34,0,0,1,1.28,1.76l-1.65,6.18h-2.88l0.42,1.74h2.73a1.66,1.66,0,0,0,1.74-1.32l1.39-5h-1.14l0.88-3.39h2.9a1.5,1.5,0,0,1,1.52,1.41,1.54,1.54,0,0,1-.07.53Z" transform="translate(0 -2422.16)"/><path class="cls-2" d="M585.72,2583.32V2593h-3.81v-9.68H576l0.88-3.39h10.76v3.39h-1.89Z" transform="translate(0 -2422.16)"/><path class="cls-2" d="M598.74,2593v-9.68h-3.52V2593h-3.81v-9.68h-1.94l0.88-3.39h10.39a1.79,1.79,0,0,1,1.78,1.78V2593h-3.78Z" transform="translate(0 -2422.16)"/><path class="cls-2" d="M612.89,2593v-9.68h-7.61l0.88-3.39h8.76a1.79,1.79,0,0,1,1.8,1.78V2593h-3.83Zm-7.61,0v-7.33H609V2593h-3.74Z" transform="translate(0 -2422.16)"/><path class="cls-2" d="M638.32,2583.3l-0.92,5.76a5.14,5.14,0,0,1-10.14.09l-0.75-5.83H624.9l0.88-3.39h12.85S638.41,2582.81,638.32,2583.3Zm-7.28,5.35a1.26,1.26,0,0,0,1.28,1.28,1.22,1.22,0,0,0,1.28-1.28l0.84-5.32h-4.07Z" transform="translate(0 -2422.16)"/><path class="cls-2" d="M640.38,2593v-3.39h3.17v-6.29h-2.33l0.88-3.39h3.48a1.81,1.81,0,0,1,1.8,1.78V2593h-7Z" transform="translate(0 -2422.16)"/><path class="cls-2" d="M654,2579.93a1.66,1.66,0,0,1,1.65,1.65v6.12H651.8v-4.38h-2.33l0.88-3.39H654Z" transform="translate(0 -2422.16)"/><path class="cls-2" d="M660.1,2584.31h-2.16l1.21-6.87h3.56Z" transform="translate(0 -2422.16)"/><path class="cls-2" d="M670,2593l-0.62-3.32-3.79,4.18-2.57-2.31,4.18-4.62,1.78,0.66-0.55-4.27h-2.9l0.88-3.39h3.72a1.59,1.59,0,0,1,1.63,1.14c0.11,0.42,2,11.92,2,11.92H670Z" transform="translate(0 -2422.16)"/><path class="cls-2" d="M683.29,2593v-9.68h-7.61l0.88-3.39h8.76a1.79,1.79,0,0,1,1.8,1.78V2593h-3.83Zm-7.61,0v-7.33h3.74V2593h-3.74Z" transform="translate(0 -2422.16)"/><path class="cls-2" d="M704.65,2579.93a1.9,1.9,0,0,1,1.89,2.46l-3,10.61h-3.7l2.71-9.68h-7V2577l3.83-.88v3.78h5.24Z" transform="translate(0 -2422.16)"/><path class="cls-2" d="M719.89,2579.93a2.08,2.08,0,0,1,2.07,2.64l-1.47,5.57c-0.64,2.38-2.11,3.72-5,4.38-1,.22-5.68,1.52-5.68,1.52l-0.9-3.32,3-.81-1.65-6.58H708.1l0.88-3.39h2.71a1.78,1.78,0,0,1,1.87,1.43l1.8,7.59,0.51-.13a1.61,1.61,0,0,0,1-1.25l1.17-4.25h-2.18l0.88-3.39h3.15Z" transform="translate(0 -2422.16)"/><path class="cls-2" d="M537,2617v-4.28h1.13V2617H537Zm5.55,0h-1.13v-6.17h-4.4l0.24-.94H542a0.53,0.53,0,0,1,.54.53V2617Z" transform="translate(0 -2422.16)"/><path class="cls-2" d="M549.9,2614.53h-0.83l1.46,1.75-0.77.74-3.92-4.7-0.58,4.68h-1.1l0.58-4.59,0.9-.35-1.4-1.62,0.79-.71,3.86,4.58,0.72-3.47h-1.24l0.23-.94h1.48a0.61,0.61,0,0,1,.61.78Z" transform="translate(0 -2422.16)"/><path class="cls-2" d="M553.22,2613.51v-2.66H552l0.23-.94h1.69a0.49,0.49,0,0,1,.49.5v3.09h-1.15Z" transform="translate(0 -2422.16)"/><path class="cls-2" d="M560.85,2617h-1.13v-6.17h-4l0.23-.94h4.34a0.54,0.54,0,0,1,.54.53V2617Z" transform="translate(0 -2422.16)"/><path class="cls-2" d="M568.49,2609.91a0.7,0.7,0,0,1,.73.72,1.5,1.5,0,0,1-.08.38l-1.59,5.48-1.1-.34,1.55-5.31h-3.53v7.77h-1.12v-7.77h-0.89l0.23-.94h5.8Z" transform="translate(0 -2422.16)"/><path class="cls-2" d="M579.73,2617v-6.17h-3.35V2617h-2.6v-0.95h1.49v-5.22h-1l0.23-.94h5.85a0.53,0.53,0,0,1,.54.53V2617h-1.13Z" transform="translate(0 -2422.16)"/><path class="cls-2" d="M583.47,2617v-6.17h-1l0.24-.94h1.33a0.53,0.53,0,0,1,.53.53V2617h-1.14Z" transform="translate(0 -2422.16)"/><path class="cls-2" d="M592.37,2609.91a0.7,0.7,0,0,1,.73.72,1.5,1.5,0,0,1-.08.38l-1.59,5.48-1.1-.34,1.55-5.31h-3.53v7.77h-1.12v-7.77h-0.89l0.23-.94h5.8Z" transform="translate(0 -2422.16)"/><path class="cls-2" d="M599,2610.84V2617h-1.14v-6.17H594.3l0.24-.94h5.61v0.94H599Z" transform="translate(0 -2422.16)"/><path class="cls-2" d="M609.17,2611c-2.22,2.22-2.67,3.18-2.67,4.89V2617h-1.22v-1.15c0-2.16,1.25-3.57,2.71-5h-3.72l0.23-.94h4.68V2611Z" transform="translate(0 -2422.16)"/><path class="cls-2" d="M617.73,2617.81V2609h1v8.78h-1Z" transform="translate(0 -2422.16)"/><path class="cls-2" d="M628.7,2617v-6l-1.54,1-0.43-.74,2.07-1.39h1V2617H628.7Z" transform="translate(0 -2422.16)"/><path class="cls-2" d="M636.67,2611c-2.22,2.22-2.67,3.18-2.67,4.89V2617h-1.22v-1.15c0-2.16,1.25-3.57,2.71-5h-3.72l0.23-.94h4.68V2611Z" transform="translate(0 -2422.16)"/><path class="cls-2" d="M638,2617v-1.25h1.25V2617H638Z" transform="translate(0 -2422.16)"/><path class="cls-2" d="M643.68,2617.18c-1.74,0-2.66-1-2.66-2.41a4.55,4.55,0,0,1,1.13-2.77l1.7-2.41,1.16,0.3-1.89,2.75a2.12,2.12,0,0,1,.62-0.1A2.34,2.34,0,1,1,643.68,2617.18Zm0-3.77a1.44,1.44,0,1,0,0,2.88,1.42,1.42,0,0,0,1.55-1.45A1.44,1.44,0,0,0,643.65,2613.41Z" transform="translate(0 -2422.16)"/><path class="cls-2" d="M647.88,2617v-1.25h1.25V2617h-1.25Z" transform="translate(0 -2422.16)"/><path class="cls-2" d="M652,2616.11h3.59v0.9h-4.67v-0.52c0-3.41,3.78-3,3.78-4.8a1.07,1.07,0,0,0-1.12-.95,5.36,5.36,0,0,0-2.3.56v-1a5.94,5.94,0,0,1,2.1-.53c1.39,0,2.4.71,2.4,2C655.77,2614.06,652.13,2613.86,652,2616.11Z" transform="translate(0 -2422.16)"/><path class="cls-2" d="M659.79,2617.17c-2.3,0-2.48-1.16-2.48-3.79s0.25-3.57,2.48-3.57,2.5,1.05,2.5,3.57S662.1,2617.17,659.79,2617.17Zm1.42-3.67c0-.67,0-1,0-1.31a1.57,1.57,0,0,0-.44-1.24,2.85,2.85,0,0,0-.95-0.12,2.54,2.54,0,0,0-.94.12,1.6,1.6,0,0,0-.44,1.22c0,0.29,0,.68,0,1.32s0,1,0,1.33a1.62,1.62,0,0,0,.44,1.21,2.84,2.84,0,0,0,.94.12,2.77,2.77,0,0,0,.94-0.12,1.49,1.49,0,0,0,.46-1.22C661.19,2614.5,661.2,2614.17,661.2,2613.5Z" transform="translate(0 -2422.16)"/><path class="cls-2" d="M665.64,2617v-6l-1.54,1-0.43-.74,2.07-1.39h1V2617h-1.15Z" transform="translate(0 -2422.16)"/><path class="cls-2" d="M671.62,2617.18c-1.74,0-2.66-1-2.66-2.41a4.55,4.55,0,0,1,1.13-2.77l1.7-2.41,1.16,0.3-1.89,2.75a2.12,2.12,0,0,1,.62-0.1A2.34,2.34,0,1,1,671.62,2617.18Zm0-3.77a1.44,1.44,0,1,0,0,2.88,1.42,1.42,0,0,0,1.55-1.45A1.44,1.44,0,0,0,671.58,2613.41Z" transform="translate(0 -2422.16)"/><path class="cls-2" d="M683.08,2617.81V2609h1v8.78h-1Z" transform="translate(0 -2422.16)"/><path class="cls-2" d="M693.51,2618.58v-7.18h-1.1l0.4-1.51h1.67a0.82,0.82,0,0,1,.83.82v7.88h-1.79Z" transform="translate(0 -2422.16)"/><path class="cls-2" d="M700.71,2617v-5.61h-4.15l0.4-1.51h4.73a0.81,0.81,0,0,1,.82.82V2617h-1.79Z" transform="translate(0 -2422.16)"/><path class="cls-2" d="M704.89,2617v-5.61h-1.08l0.4-1.51h1.67a0.82,0.82,0,0,1,.83.82V2617h-1.81Z" transform="translate(0 -2422.16)"/><path class="cls-2" d="M714.56,2609.89a0.83,0.83,0,0,1,.82,1.08l-1.73,5.63-1.6-.58,1.42-4.62H710.7v7.18h-1.76v-7.18h-1l0.4-1.51h6.26Z" transform="translate(0 -2422.16)"/><path class="cls-2" d="M719.93,2617v-4.08h1.78V2617h-1.78Zm4.45,0v-5.61H720l0.4-1.51h4.91a0.85,0.85,0,0,1,.88.82V2617h-1.79Z" transform="translate(0 -2422.16)"/><path class="cls-2" d="M733.51,2614.33a3.15,3.15,0,0,1-2.58,2.45c-0.43.11-2.24,0.64-2.83,0.8l-0.36-1.5,1.57-.46-1-4.23h-1l0.4-1.51H729a0.76,0.76,0,0,1,.8.65l1.09,4.61,0.14,0a1,1,0,0,0,.71-0.79l0.67-2.9H731.5l0.4-1.51h1.46a0.89,0.89,0,0,1,.9,1.15Z" transform="translate(0 -2422.16)"/><path class="cls-2" d="M736.42,2617v-5.61h-1.08l0.4-1.51h1.67a0.82,0.82,0,0,1,.83.82V2617h-1.81Z" transform="translate(0 -2422.16)"/><path class="cls-2" d="M743.13,2617h-3.69v-1.51h1.93v-4.1H740l0.4-1.51h1.88a0.82,0.82,0,0,1,.83.82V2617Z" transform="translate(0 -2422.16)"/><path class="cls-2" d="M137.48,2553.53a1.66,1.66,0,0,1,1.65,1.65v6.12H135.3v-4.38H133l0.88-3.39h3.63Z" transform="translate(0 -2422.16)"/><path class="cls-2" d="M141.51,2567v-3.43l6.23-.64v-6.05h-6.23l0.88-3.39h7.37a1.79,1.79,0,0,1,1.78,1.78v7.33l1.56-.11v3.39Z" transform="translate(0 -2422.16)"/><path class="cls-2" d="M166.43,2553.53a2.08,2.08,0,0,1,2.07,2.64l-1.47,5.57c-0.64,2.38-2.11,3.72-5,4.38-1,.22-5.68,1.52-5.68,1.52l-0.9-3.32,3-.81-1.65-6.58h-2.22l0.88-3.39h2.71a1.78,1.78,0,0,1,1.87,1.43l1.8,7.59,0.51-.13a1.61,1.61,0,0,0,1-1.25l1.17-4.25h-2.18l0.88-3.39h3.15Z" transform="translate(0 -2422.16)"/><path class="cls-2" d="M172.07,2566.6v-9.68h-1.83l0.88-3.39h3a1.79,1.79,0,0,1,1.78,1.78v11.29h-3.81Z" transform="translate(0 -2422.16)"/><path class="cls-2" d="M184.41,2556.92l1.3,9.68H181.9l-1.3-9.68h-2.4l0.88-3.39h7.37v3.39h-2Z" transform="translate(0 -2422.16)"/><path class="cls-2" d="M196.66,2569.48v-12.56h-1.85l0.88-3.39h3a1.81,1.81,0,0,1,1.8,1.78v14.17h-3.81Z" transform="translate(0 -2422.16)"/><path class="cls-2" d="M207.07,2553.53a1.66,1.66,0,0,1,1.65,1.65v6.12h-3.83v-4.38h-2.33l0.88-3.39h3.63Z" transform="translate(0 -2422.16)"/><path class="cls-2" d="M210.81,2566.6v-3.39H214v-6.29h-2.33l0.88-3.39H216a1.81,1.81,0,0,1,1.8,1.78v11.29h-7Z" transform="translate(0 -2422.16)"/><path class="cls-2" d="M229.38,2566.6v-9.68h-3.52v9.68H222v-9.68h-1.94l0.88-3.39h10.39a1.79,1.79,0,0,1,1.78,1.78v11.29h-3.78Z" transform="translate(0 -2422.16)"/><path class="cls-2" d="M251.49,2566.6v-9.68h-3.76v9.68h-6.54v-3.39h2.73v-6.29h-2.33l0.88-3.39h11a1.79,1.79,0,0,1,1.8,1.78v11.29h-3.83Z" transform="translate(0 -2422.16)"/><path class="cls-2" d="M268.23,2567l-6.21-7-0.4,6.53h-3.76l0.4-7.24,2.22-1-2.64-3,2.77-2.46,6.21,7.08,0.4-3h-1.83l0.77-3.39h2.29c1.58,0,2.6.81,2.4,2.4l-0.66,5.08h-2.35l3.17,3.56Z" transform="translate(0 -2422.16)"/><path class="cls-2" d="M288.71,2566.6v-9.68h-3.76v9.68h-6.54v-3.39h2.73v-6.29h-2.33l0.88-3.39h11a1.79,1.79,0,0,1,1.8,1.78v11.29h-3.83Z" transform="translate(0 -2422.16)"/><path class="cls-2" d="M309.52,2562.29a5.41,5.41,0,0,1-5.48,4.31h-5.41l-2.29-9.68h-1.72l0.88-3.39h2.11a1.71,1.71,0,0,1,1.87,1.43l1.23,5.15,0.86-3.19h-1.12l0.88-3.39h2.95a1.34,1.34,0,0,1,1.28,1.76l-1.65,6.18H301l0.42,1.74h2.73a1.66,1.66,0,0,0,1.74-1.32l1.39-5h-1.14l0.88-3.39h2.9a1.5,1.5,0,0,1,1.52,1.41,1.54,1.54,0,0,1-.07.53Z" transform="translate(0 -2422.16)"/><path class="cls-2" d="M319.24,2566.6l-0.62-3.32-3.79,4.18-2.57-2.31,4.18-4.62,1.78,0.66-0.55-4.27h-2.9l0.88-3.39h3.72a1.59,1.59,0,0,1,1.63,1.14c0.11,0.42,2,11.92,2,11.92h-3.72Z" transform="translate(0 -2422.16)"/><path class="cls-2" d="M326.33,2566.6v-9.68H324.5l0.88-3.39h3a1.79,1.79,0,0,1,1.78,1.78v11.29h-3.81Z" transform="translate(0 -2422.16)"/><path class="cls-2" d="M332.91,2567v-3.43l7.94-.77v-5.92h-3.17v4.2h-3.61v-4.2h-1.39l0.88-3.39h9.26a1.8,1.8,0,0,1,1.83,1.78v9A1.85,1.85,0,0,1,343,2566Z" transform="translate(0 -2422.16)"/><path class="cls-2" d="M357.3,2553.53a1.66,1.66,0,0,1,1.65,1.65v6.12h-3.83v-4.38h-2.33l0.88-3.39h3.63Z" transform="translate(0 -2422.16)"/><path class="cls-2" d="M371.12,2566.6v-9.68h-3.76v9.68h-6.54v-3.39h2.73v-6.29h-2.33l0.88-3.39h11a1.79,1.79,0,0,1,1.8,1.78v11.29h-3.83Z" transform="translate(0 -2422.16)"/><path class="cls-2" d="M391.93,2562.29a5.41,5.41,0,0,1-5.48,4.31H381l-2.29-9.68H377l0.88-3.39H380a1.71,1.71,0,0,1,1.87,1.43l1.23,5.15,0.86-3.19h-1.12l0.88-3.39h2.95a1.34,1.34,0,0,1,1.28,1.76l-1.65,6.18h-2.88l0.42,1.74h2.73a1.66,1.66,0,0,0,1.74-1.32l1.39-5h-1.14l0.88-3.39h2.9a1.5,1.5,0,0,1,1.52,1.41,1.54,1.54,0,0,1-.07.53Z" transform="translate(0 -2422.16)"/><path class="cls-2" d="M397.54,2566.6v-9.68h-1.83l0.88-3.39h3a1.79,1.79,0,0,1,1.78,1.78v11.29h-3.81Z" transform="translate(0 -2422.16)"/><path class="cls-2" d="M164.53,2590.61v-4.28h1.13v4.28h-1.13Zm5.55,0H169v-6.17h-4.4l0.24-.94h4.75a0.53,0.53,0,0,1,.54.53v6.57Z" transform="translate(0 -2422.16)"/><path class="cls-2" d="M177.4,2588.13h-0.83l1.46,1.75-0.77.74-3.92-4.7-0.58,4.68h-1.1l0.58-4.59,0.9-.35-1.4-1.62,0.79-.71,3.86,4.58,0.72-3.47h-1.24l0.23-.94h1.48a0.61,0.61,0,0,1,.61.78Z" transform="translate(0 -2422.16)"/><path class="cls-2" d="M180.72,2587.11v-2.66h-1.26l0.23-.94h1.69a0.49,0.49,0,0,1,.49.5v3.09h-1.15Z" transform="translate(0 -2422.16)"/><path class="cls-2" d="M188.35,2590.61h-1.13v-6.17h-4l0.23-.94h4.34a0.54,0.54,0,0,1,.54.53v6.57Z" transform="translate(0 -2422.16)"/><path class="cls-2" d="M196,2583.51a0.7,0.7,0,0,1,.73.72,1.5,1.5,0,0,1-.08.38l-1.59,5.48-1.1-.34,1.55-5.31H192v7.77h-1.12v-7.77H190l0.23-.94H196Z" transform="translate(0 -2422.16)"/><path class="cls-2" d="M207.23,2590.61v-6.17h-3.35v6.17h-2.6v-0.95h1.49v-5.22h-1l0.23-.94h5.85a0.53,0.53,0,0,1,.54.53v6.57h-1.13Z" transform="translate(0 -2422.16)"/><path class="cls-2" d="M211,2590.61v-6.17h-1l0.24-.94h1.33a0.53,0.53,0,0,1,.53.53v6.57H211Z" transform="translate(0 -2422.16)"/><path class="cls-2" d="M219.87,2583.51a0.7,0.7,0,0,1,.73.72,1.5,1.5,0,0,1-.08.38l-1.59,5.48-1.1-.34,1.55-5.31h-3.53v7.77h-1.12v-7.77h-0.89l0.23-.94h5.8Z" transform="translate(0 -2422.16)"/><path class="cls-2" d="M226.52,2584.44v6.17h-1.14v-6.17H221.8l0.24-.94h5.61v0.94h-1.14Z" transform="translate(0 -2422.16)"/><path class="cls-2" d="M236.67,2584.56c-2.22,2.22-2.67,3.18-2.67,4.89v1.15h-1.22v-1.15c0-2.16,1.25-3.57,2.71-5h-3.72l0.23-.94h4.68v1.06Z" transform="translate(0 -2422.16)"/><path class="cls-2" d="M245.23,2591.41v-8.78h1v8.78h-1Z" transform="translate(0 -2422.16)"/><path class="cls-2" d="M256.2,2590.62v-6l-1.54,1-0.43-.74,2.07-1.39h1v7.11H256.2Z" transform="translate(0 -2422.16)"/><path class="cls-2" d="M264.17,2584.56c-2.22,2.22-2.67,3.18-2.67,4.89v1.15h-1.22v-1.15c0-2.16,1.25-3.57,2.71-5h-3.72l0.23-.94h4.68v1.06Z" transform="translate(0 -2422.16)"/><path class="cls-2" d="M265.47,2590.61v-1.25h1.25v1.25h-1.25Z" transform="translate(0 -2422.16)"/><path class="cls-2" d="M271.18,2590.78c-1.74,0-2.66-1-2.66-2.41a4.55,4.55,0,0,1,1.13-2.77l1.7-2.41,1.16,0.3-1.89,2.75a2.12,2.12,0,0,1,.62-0.1A2.34,2.34,0,1,1,271.18,2590.78Zm0-3.77a1.44,1.44,0,1,0,0,2.88,1.42,1.42,0,0,0,1.55-1.45A1.44,1.44,0,0,0,271.15,2587Z" transform="translate(0 -2422.16)"/><path class="cls-2" d="M275.38,2590.61v-1.25h1.25v1.25h-1.25Z" transform="translate(0 -2422.16)"/><path class="cls-2" d="M279.49,2589.71h3.59v0.9h-4.67v-0.52c0-3.41,3.78-3,3.78-4.8a1.07,1.07,0,0,0-1.12-.95,5.36,5.36,0,0,0-2.3.56v-1a5.94,5.94,0,0,1,2.1-.53c1.39,0,2.4.71,2.4,2C283.27,2587.66,279.63,2587.46,279.49,2589.71Z" transform="translate(0 -2422.16)"/><path class="cls-2" d="M287.29,2590.76c-2.3,0-2.48-1.16-2.48-3.79s0.25-3.57,2.48-3.57,2.5,1.05,2.5,3.57S289.6,2590.76,287.29,2590.76Zm1.42-3.67c0-.67,0-1,0-1.31a1.57,1.57,0,0,0-.44-1.24,2.85,2.85,0,0,0-.95-0.12,2.54,2.54,0,0,0-.94.12,1.6,1.6,0,0,0-.44,1.22c0,0.29,0,.68,0,1.32s0,1,0,1.33a1.62,1.62,0,0,0,.44,1.21,2.84,2.84,0,0,0,.94.12,2.77,2.77,0,0,0,.94-0.12,1.49,1.49,0,0,0,.46-1.22C288.69,2588.1,288.7,2587.77,288.7,2587.09Z" transform="translate(0 -2422.16)"/><path class="cls-2" d="M293.14,2590.62v-6l-1.54,1-0.43-.74,2.07-1.39h1v7.11h-1.15Z" transform="translate(0 -2422.16)"/><path class="cls-2" d="M299.12,2590.78c-1.74,0-2.66-1-2.66-2.41a4.55,4.55,0,0,1,1.13-2.77l1.7-2.41,1.16,0.3-1.89,2.75a2.12,2.12,0,0,1,.62-0.1A2.34,2.34,0,1,1,299.12,2590.78Zm0-3.77a1.44,1.44,0,1,0,0,2.88,1.42,1.42,0,0,0,1.55-1.45A1.44,1.44,0,0,0,299.08,2587Z" transform="translate(0 -2422.16)"/><path class="cls-2" d="M310.58,2591.41v-8.78h1v8.78h-1Z" transform="translate(0 -2422.16)"/><path class="cls-2" d="M321,2592.18V2585h-1.1l0.4-1.51H322a0.82,0.82,0,0,1,.83.82v7.88H321Z" transform="translate(0 -2422.16)"/><path class="cls-2" d="M328.21,2590.61V2585h-4.15l0.4-1.51h4.73a0.81,0.81,0,0,1,.82.82v6.31h-1.79Z" transform="translate(0 -2422.16)"/><path class="cls-2" d="M332.39,2590.61V2585h-1.08l0.4-1.51h1.67a0.82,0.82,0,0,1,.83.82v6.31h-1.81Z" transform="translate(0 -2422.16)"/><path class="cls-2" d="M342.06,2583.49a0.83,0.83,0,0,1,.82,1.08l-1.73,5.63-1.6-.58L341,2585H338.2v7.18h-1.76V2585h-1l0.4-1.51h6.26Z" transform="translate(0 -2422.16)"/><path class="cls-2" d="M347.43,2590.61v-4.08h1.78v4.08h-1.78Zm4.45,0V2585h-4.39l0.4-1.51h4.91a0.85,0.85,0,0,1,.88.82v6.31h-1.79Z" transform="translate(0 -2422.16)"/><path class="cls-2" d="M361,2587.93a3.15,3.15,0,0,1-2.58,2.45c-0.43.11-2.24,0.64-2.83,0.8l-0.36-1.5,1.57-.46-1-4.23h-1l0.4-1.51h1.32a0.76,0.76,0,0,1,.8.65l1.09,4.61,0.14,0a1,1,0,0,0,.71-0.79l0.67-2.9H359l0.4-1.51h1.46a0.89,0.89,0,0,1,.9,1.15Z" transform="translate(0 -2422.16)"/><path class="cls-2" d="M363.92,2590.61V2585h-1.08l0.4-1.51h1.67a0.82,0.82,0,0,1,.83.82v6.31h-1.81Z" transform="translate(0 -2422.16)"/><path class="cls-2" d="M370.63,2590.61h-3.69v-1.51h1.93V2585h-1.34l0.4-1.51h1.88a0.82,0.82,0,0,1,.83.82v6.31Z" transform="translate(0 -2422.16)"/><path class="cls-3" d="M917.06,2455.59v-1.54h1.54v1.54h-1.54Zm0,5v-1.54h1.54v1.54h-1.54Z" transform="translate(0 -2422.16)"/><path class="cls-3" d="M922.76,2462.46h-1.53v-8.87h-1.15l0.34-1.29H922a0.72,0.72,0,0,1,.73.71v9.44Z" transform="translate(0 -2422.16)"/><path class="cls-3" d="M931.37,2460.62h-1.53v-7h-5.06l0.34-1.29h5.52a0.72,0.72,0,0,1,.73.71v7.61Zm-6.58,0v-4.92h1.53v4.92h-1.53Z" transform="translate(0 -2422.16)"/><path class="cls-3" d="M941,2462.46v-8.87H937l0.34-1.29h4.54a0.71,0.71,0,0,1,.71.7v9.46H941Z" transform="translate(0 -2422.16)"/><path class="cls-3" d="M949.92,2452.3a0.83,0.83,0,0,1,.84.84,1.09,1.09,0,0,1-.06.31s-1.51,5.62-2,7.17h-1.61l1.93-7h-4.83v-3.15l1.53-.34v2.2h4.16Z" transform="translate(0 -2422.16)"/><path class="cls-3" d="M957.33,2452.3a0.57,0.57,0,0,1,.57.74l-1.62,4.93H955l0.28,1.34h1.43a1.63,1.63,0,0,0,1.72-1.23l1.47-4.5H959l0.34-1.29h1.37a0.78,0.78,0,0,1,.79,1L960,2458c-0.74,2.3-1.83,2.58-3.77,2.58h-2.13l-1.5-7h-0.84l0.34-1.29h1a0.72,0.72,0,0,1,.77.66l1,4.51,1.26-3.88h-0.83l0.34-1.29h1.64Z" transform="translate(0 -2422.16)"/><path class="cls-3" d="M973.58,2460.62h-1.53v-7H967l0.34-1.29h5.52a0.72,0.72,0,0,1,.73.71v7.61Zm-6.58,0v-4.92h1.53v4.92H967Z" transform="translate(0 -2422.16)"/><path class="cls-3" d="M982.09,2457.79h-0.8l1.58,1.89-1,1-4.4-5.27-0.64,5.2h-1.48l0.67-5.44,1-.38L975.4,2453l1.07-1,4.31,5.14,0.71-3.59h-1.39l0.34-1.29h1.77a0.81,0.81,0,0,1,.81,1Z" transform="translate(0 -2422.16)"/><path class="cls-3" d="M985.81,2456.63v-3h-1.47l0.34-1.29h2a0.68,0.68,0,0,1,.67.69v3.64h-1.54Z" transform="translate(0 -2422.16)"/><path class="cls-3" d="M994.89,2460.62h-1.53v-7H988.8l0.34-1.29h5a0.73,0.73,0,0,1,.73.71v7.61Z" transform="translate(0 -2422.16)"/><path class="cls-3" d="M1003.68,2452.3a0.91,0.91,0,0,1,1,.92,1.9,1.9,0,0,1-.11.52l-1.82,6.16-1.42-.48,1.71-5.84h-3.8v8.87h-1.5v-8.87h-1.06l0.34-1.29h6.71Z" transform="translate(0 -2422.16)"/><path class="cls-3" d="M1012.95,2460.62h-1.53v-7h-5.06l0.34-1.29h5.52a0.72,0.72,0,0,1,.73.71v7.61Zm-6.58,0v-4.92h1.53v4.92h-1.53Z" transform="translate(0 -2422.16)"/><path class="cls-3" d="M1025.2,2460.62v-7h-3.6v7h-3.19v-1.3h1.7v-5.73h-1.21l0.34-1.29H1026a0.72,0.72,0,0,1,.73.71v7.61h-1.51Z" transform="translate(0 -2422.16)"/><path class="cls-3" d="M1030.39,2453.17a3.17,3.17,0,0,1,2.31-1,3.1,3.1,0,0,1,3.19,3.15v5.32h-4l0.25-1.3h2.31v-4a1.76,1.76,0,0,0-1.76-1.76,1.73,1.73,0,0,0-1.72,1.44l-1,5.67h-1.54l1.12-6.21-1.39-.87,0.83-1.25Z" transform="translate(0 -2422.16)"/><path class="cls-3" d="M1038.79,2456.63v-3h-1.47l0.34-1.29h2a0.68,0.68,0,0,1,.67.69v3.64h-1.54Z" transform="translate(0 -2422.16)"/><path class="cls-3" d="M1047.33,2452.3a0.57,0.57,0,0,1,.57.74l-1.62,4.93H1045l0.28,1.34h1.43a1.63,1.63,0,0,0,1.72-1.23l1.47-4.5h-0.9l0.34-1.29h1.37a0.78,0.78,0,0,1,.79,1L1050,2458c-0.74,2.3-1.83,2.58-3.77,2.58h-2.13l-1.5-7h-0.84l0.34-1.29h1a0.72,0.72,0,0,1,.77.66l1,4.51,1.26-3.88h-0.83l0.34-1.29h1.64Z" transform="translate(0 -2422.16)"/><path class="cls-3" d="M1058.8,2460.62h-1.53v-7h-4.57l0.34-1.29h5a0.73,0.73,0,0,1,.73.71v7.61Z" transform="translate(0 -2422.16)"/><path class="cls-3" d="M1060.55,2460.85v-1.36l4.38-.42v-5.48h-4.31l0.34-1.29h4.78a0.72,0.72,0,0,1,.71.71v5.9l1.07-.08v1.33Z" transform="translate(0 -2422.16)"/><path class="cls-3" d="M1079.2,2460.62v-7h-3.6v7h-3.19v-1.3h1.7v-5.73h-1.21l0.34-1.29H1080a0.72,0.72,0,0,1,.73.71v7.61h-1.51Z" transform="translate(0 -2422.16)"/><path class="cls-3" d="M1083.72,2460.62v-7h-1.12l0.34-1.29h1.6a0.72,0.72,0,0,1,.71.71v7.61h-1.53Z" transform="translate(0 -2422.16)"/><path class="cls-3" d="M1093.87,2457.79h-0.8l1.58,1.89-1,1-4.4-5.27-0.64,5.2h-1.48l0.67-5.44,1-.38-1.56-1.81,1.07-1,4.31,5.14,0.71-3.59h-1.39l0.34-1.29H1094a0.81,0.81,0,0,1,.81,1Z" transform="translate(0 -2422.16)"/><path class="cls-3" d="M1096.22,2460.85v-1.36l4.38-.42v-5.48h-4.31l0.34-1.29h4.78a0.72,0.72,0,0,1,.71.71v5.9l1.07-.08v1.33Z" transform="translate(0 -2422.16)"/><path class="cls-3" d="M1111.23,2460.62h-1.53v-7h-5.06l0.34-1.29h5.52a0.72,0.72,0,0,1,.73.71v7.61Zm-6.58,0v-4.92h1.53v4.92h-1.53Z" transform="translate(0 -2422.16)"/><path class="cls-3" d="M1123.48,2460.62v-7h-3.6v7h-3.19v-1.3h1.7v-5.73h-1.21l0.34-1.29h6.75a0.72,0.72,0,0,1,.73.71v7.61h-1.51Z" transform="translate(0 -2422.16)"/><path class="cls-3" d="M1128,2460.62v-7h-1.12l0.34-1.29h1.6a0.72,0.72,0,0,1,.71.71v7.61H1128Z" transform="translate(0 -2422.16)"/><path class="cls-3" d="M1131.38,2460.85v-1.36l4.38-.42v-5.48h-4.31l0.34-1.29h4.78a0.72,0.72,0,0,1,.71.71v5.9l1.07-.08v1.33Z" transform="translate(0 -2422.16)"/><path class="cls-3" d="M1146.19,2460.62v-7h-3.6v7h-3.19v-1.3h1.7v-5.73h-1.21l0.34-1.29H1147a0.72,0.72,0,0,1,.73.71v7.61h-1.51Z" transform="translate(0 -2422.16)"/><path class="cls-3" d="M1154,2453.59h-4.5l0.34-1.29h5a0.72,0.72,0,0,1,.71.71v6.58a0.75,0.75,0,0,1-.62.71l-5.46.53v-1.36l4.57-.45v-5.45Z" transform="translate(0 -2422.16)"/><path class="cls-3" d="M1164.16,2460.62h-1.53v-7h-5.06l0.34-1.29h5.52a0.72,0.72,0,0,1,.73.71v7.61Zm-6.58,0v-4.92h1.53v4.92h-1.53Z" transform="translate(0 -2422.16)"/><polygon class="cls-3" points="646 111.03 646 76.84 634 76.84 634 105.26 646 111.03"/><polygon class="cls-3" points="1018 111.36 1018 76.84 1006 76.84 1006 105.59 1018 111.36"/><polygon class="cls-3" points="262.25 77.17 256.13 83.63 266.26 93.22 256.13 102.82 262.25 109.28 279.2 93.22 262.25 77.17"/></svg>