<svg id="איזור_תגובות" data-name="איזור תגובות" xmlns="http://www.w3.org/2000/svg" viewBox="0 0 98.21 17.92"><defs><style>.cls-1{font-size:12.28px;fill:#827975;font-family:South;}.cls-2{fill:#867975;}</style></defs><title>commentIcons</title><text class="cls-1" transform="translate(21.6 13.51)">83</text><text class="cls-1" transform="translate(79.3 13.51)">205</text><path class="cls-2" d="M740.15,2952.75a1.28,1.28,0,0,0,.91.38,1.29,1.29,0,0,0,.91-0.38l7.11-7.11a5.71,5.71,0,0,0-8-8.14,5.71,5.71,0,0,0-8,8.12Zm-6.44-14.51a4.74,4.74,0,0,1,6.71,0l0.29,0.29a0.48,0.48,0,0,0,.34.14,0.49,0.49,0,0,0,.34-0.14l0.28-.28a4.74,4.74,0,1,1,6.7,6.7l-7.11,7.11a0.33,0.33,0,0,1-.44,0l-7.12-7.12a4.74,4.74,0,0,1,0-6.71h0Zm0,0" transform="translate(-675.77 -2935.89)"/><path class="cls-2" d="M691.2,2935.89H677.59a1.82,1.82,0,0,0-1.82,1.82v13.61a1.82,1.82,0,0,0,1.82,1.82H691.2a1.82,1.82,0,0,0,1.82-1.82V2937.7a1.82,1.82,0,0,0-1.82-1.82h0Zm1,15.43a1,1,0,0,1-1,1H677.59a1,1,0,0,1-1-1V2937.7a1,1,0,0,1,1-1H691.2a1,1,0,0,1,1,1v13.61Zm0,0" transform="translate(-675.77 -2935.89)"/><path class="cls-2" d="M687.65,2944.08h-2.83v-2.83a0.43,0.43,0,1,0-.87,0v2.83h-2.83a0.43,0.43,0,1,0,0,.86H684v2.83a0.43,0.43,0,0,0,.87,0v-2.83h2.83a0.43,0.43,0,1,0,0-.86h0Zm0,0" transform="translate(-675.77 -2935.89)"/></svg>