<svg id="טור_את_עוקבת_אחרי" data-name="טור את עוקבת אחרי" xmlns="http://www.w3.org/2000/svg" viewBox="0 0 24.24 21.4"><defs><style>.cls-1{fill:#333;}</style></defs><title>folIcon</title><path class="cls-1" d="M1021.4,176.33c-6.69,0-12.12,4.8-12.12,10.7a9.94,9.94,0,0,0,2.46,6.46,3.94,3.94,0,0,1-1.45,1.72,0.92,0.92,0,0,0-.4,1,0.9,0.9,0,0,0,.77.7,8.24,8.24,0,0,0,1.16.08,7.05,7.05,0,0,0,3.33-.78,13.31,13.31,0,0,0,6.25,1.53c6.69,0,12.12-4.8,12.12-10.7s-5.43-10.7-12.12-10.7h0Zm0,20.19a12,12,0,0,1-6-1.54,0.6,0.6,0,0,0-.3-0.08,0.62,0.62,0,0,0-.31.08,5.86,5.86,0,0,1-3.27.78,5.42,5.42,0,0,0,1.45-2.18,0.61,0.61,0,0,0-.12-0.62,8.62,8.62,0,0,1-2.4-5.93c0-5.23,4.89-9.49,10.91-9.49s10.91,4.26,10.91,9.49-4.89,9.49-10.91,9.49h0Zm0,0" transform="translate(-1009.27 -176.33)"/><path class="cls-1" d="M1024.57,184.07l-4.65,4.63-1.7-1.71a0.61,0.61,0,0,0-.86.86l2.13,2.14a0.6,0.6,0,0,0,.86,0l5.08-5.05a0.61,0.61,0,0,0-.86-0.86h0Zm0,0" transform="translate(-1009.27 -176.33)"/></svg>