<svg id="לוגו" xmlns="http://www.w3.org/2000/svg" viewBox="0 0 103 54.11"><defs><style>.cls-1{fill:#333;}</style></defs><title>LOGO</title><polygon class="cls-1" points="93.54 3.68 91.14 8.68 91.87 8.68 102.13 8.68 103 8.68 103 3.68 93.54 3.68"/><path class="cls-1" d="M1170,47V33.05c0-1.64-1.81-3.05-3.44-3.05H1157v7h6V47h7Z" transform="translate(-1157 -17.32)"/><path class="cls-1" d="M1257,30h-8v7h3V68h8V33.05A3,3,0,0,0,1257,30Z" transform="translate(-1157 -17.32)"/><path class="cls-1" d="M1220.6,25.39a2.42,2.42,0,0,0,1.77-.76l4.31-4.55-2.91-2.76-3.18,3.35-3.18-3.35-2.91,2.76,4.31,4.55A2.42,2.42,0,0,0,1220.6,25.39Z" transform="translate(-1157 -17.32)"/><circle class="cls-1" cx="35.9" cy="51.12" r="2.99"/><path class="cls-1" d="M1228.16,54.67c-1.33,3.93-3.86,6.33-9.12,6.33h-8.38v0.19L1225.92,30h-7.41l-10.1,20.8-3.88-18.38a3,3,0,0,0-2.91-2.42H1176V61h-8v7h15V37h15.48l6.68,31h11.28c10.24,0,16-1.34,20-13.51l7.9-24.49h-8Z" transform="translate(-1157 -17.32)"/></svg>