<svg id="Layer_1" data-name="Layer 1" xmlns="http://www.w3.org/2000/svg" viewBox="0 0 19.2 28.85"><title>recrdIcon</title><path d="M27.29,62.51a5.66,5.66,0,0,0,5.65-5.65V49.19a5.65,5.65,0,1,0-11.31,0v7.67a5.66,5.66,0,0,0,5.65,5.65h0ZM23.08,49.19a4.21,4.21,0,0,1,8.43,0v7.67a4.21,4.21,0,1,1-8.43,0V49.19Zm0,0" transform="translate(-17.69 -43.53)"/><path d="M18.41,56.14a0.72,0.72,0,0,0-.72.72,9.6,9.6,0,0,0,8.88,9.57v4.51H22.81a0.72,0.72,0,0,0,0,1.45h9a0.72,0.72,0,0,0,0-1.45H28V66.43a9.61,9.61,0,0,0,8.88-9.57,0.72,0.72,0,0,0-1.45,0,8.16,8.16,0,0,1-16.33,0,0.7,0.7,0,0,0-.71-0.72h0Zm0,0" transform="translate(-17.69 -43.53)"/></svg>