<svg id="הדמיית_סימון_טקסט" data-name="הדמיית סימון טקסט" xmlns="http://www.w3.org/2000/svg" viewBox="0 0 19.36 17.1"><defs><style>.cls-1{fill:#fff;}</style></defs><title>tooltip1</title><g id="אייקונים"><path class="cls-1" d="M919.95,694.13c0,4.71,4.35,8.55,9.68,8.55a10.63,10.63,0,0,0,5-1.23,5.63,5.63,0,0,0,2.66.62,6.5,6.5,0,0,0,.92-0.06,0.74,0.74,0,0,0,.3-1.35,3.22,3.22,0,0,1-1.16-1.38,7.94,7.94,0,0,0,2-5.16c0-4.71-4.35-8.55-9.68-8.55s-9.68,3.84-9.68,8.55h0Zm1,0c0-4.18,3.91-7.58,8.71-7.58s8.71,3.4,8.71,7.58a6.92,6.92,0,0,1-1.92,4.74,0.49,0.49,0,0,0-.1.5,4.3,4.3,0,0,0,1.16,1.74,4.68,4.68,0,0,1-2.61-.62,0.46,0.46,0,0,0-.25-0.07,0.48,0.48,0,0,0-.24.06,9.64,9.64,0,0,1-4.76,1.23c-4.8,0-8.71-3.4-8.71-7.58h0Zm0,0" transform="translate(-919.95 -685.58)"/></g></svg>