<svg id="הדמיית_סימון_טקסט" data-name="הדמיית סימון טקסט" xmlns="http://www.w3.org/2000/svg" viewBox="0 0 15.55 15.52"><defs><style>.cls-1{fill:#fff;}</style></defs><title>tooltip2</title><g id="אייקונים"><path class="cls-1" d="M899.44,692.13L897.55,694l-2.09,2.09a1.3,1.3,0,0,0-.33.61c-0.25,1.15-.49,2.3-0.74,3.45l-0.14.64a0.91,0.91,0,0,0,.23.83,0.89,0.89,0,0,0,.63.25l0.2,0,0.7-.15,3.34-.7a1.3,1.3,0,0,0,.66-0.36l9.37-9.37a1.32,1.32,0,0,0,.39-0.84,0.55,0.55,0,0,0,0-.16l-0.06-.24a3.51,3.51,0,0,0-.19-0.66,5.18,5.18,0,0,0-2.88-2.83,3.19,3.19,0,0,0-.79-0.17h-0.07a1.12,1.12,0,0,0-1,.36l-5.39,5.39h0Zm6.22-4.8h0.09a2.1,2.1,0,0,1,.55.11,4.25,4.25,0,0,1,2.36,2.31,2.48,2.48,0,0,1,.13.46l0,0.19a0.3,0.3,0,0,1-.1.17L899.34,700a0.31,0.31,0,0,1-.17.09l-3.35.7-0.59.12,0.11-.52c0.24-1.14.48-2.29,0.73-3.44a0.35,0.35,0,0,1,.08-0.13l2.08-2.09,1.89-1.89,5.4-5.41a0.23,0.23,0,0,1,.14-0.08h0Zm0,0" transform="translate(-894.24 -686.37)"/></g></svg>