<svg id="הדמיית_סימון_טקסט" data-name="הדמיית סימון טקסט" xmlns="http://www.w3.org/2000/svg" viewBox="0 0 16.7 16.7"><defs><style>.cls-1{fill:#fff;}</style></defs><title>tooltip4</title><g id="אייקונים"><path class="cls-1" d="M847.37,685.78H834.19a1.76,1.76,0,0,0-1.76,1.76v13.18a1.76,1.76,0,0,0,1.76,1.76h13.18a1.76,1.76,0,0,0,1.76-1.76V687.54a1.76,1.76,0,0,0-1.76-1.76h0Zm0.92,14.94a0.93,0.93,0,0,1-.92.92H834.19a0.93,0.93,0,0,1-.92-0.92V687.54a0.93,0.93,0,0,1,.92-0.92h13.18a0.93,0.93,0,0,1,.92.92v13.18Zm0,0" transform="translate(-832.43 -685.78)"/><path class="cls-1" d="M843.93,693.72h-2.74V691a0.42,0.42,0,1,0-.84,0v2.74h-2.74a0.42,0.42,0,1,0,0,.84h2.74v2.74a0.42,0.42,0,0,0,.84,0v-2.74h2.74a0.42,0.42,0,1,0,0-.84h0Zm0,0" transform="translate(-832.43 -685.78)"/></g></svg>