<svg id="הדמיית_סימון_טקסט" data-name="הדמיית סימון טקסט" xmlns="http://www.w3.org/2000/svg" viewBox="0 0 19.39 16.7"><defs><style>.cls-1{fill:#fff;}</style></defs><title>tooltip3</title><g id="אייקונים"><path class="cls-1" d="M883.09,694.13a1,1,0,0,0-.57-0.93l-18.15-7.39a0.48,0.48,0,0,0-.66.54l3,15.05a1,1,0,0,0,.93.76,0.93,0.93,0,0,0,.54-0.17l3.56-2.46,2.51,2.78a0.48,0.48,0,0,0,.36.16,0.44,0.44,0,0,0,.16,0,0.49,0.49,0,0,0,.33-0.43l0.26-4.89,7.1-2.15a0.94,0.94,0,0,0,.67-0.85h0ZM872.49,699l1.82-1.26-0.16,3.09ZM865,687.92l9.08,8.79-6.48,4.48Zm17.07,6.16L875,696.22l-9-8.69ZM866,687.53" transform="translate(-863.7 -685.78)"/></g></svg>