<svg id="Layer_1" data-name="Layer 1" xmlns="http://www.w3.org/2000/svg" viewBox="0 0 16.7 16.7"><defs><style>.cls-1{fill:#333;}</style></defs><title>topbar4</title><path class="cls-1" d="M1205.11,61.47h-13.18a1.76,1.76,0,0,0-1.76,1.76V76.4a1.76,1.76,0,0,0,1.76,1.76h13.18a1.76,1.76,0,0,0,1.76-1.76V63.22a1.76,1.76,0,0,0-1.76-1.76h0ZM1206,76.4a0.93,0.93,0,0,1-.92.92h-13.18a0.93,0.93,0,0,1-.92-0.92V63.22a0.93,0.93,0,0,1,.92-0.92h13.18a0.93,0.93,0,0,1,.92.92V76.4Zm0,0" transform="translate(-1190.17 -61.47)"/><path class="cls-1" d="M1201.67,69.4h-2.74V66.66a0.42,0.42,0,1,0-.84,0V69.4h-2.74a0.42,0.42,0,1,0,0,.84h2.74V73a0.42,0.42,0,1,0,.84,0V70.23h2.74a0.42,0.42,0,1,0,0-.84h0Zm0,0" transform="translate(-1190.17 -61.47)"/></svg>