<svg id="Layer_1" data-name="Layer 1" xmlns="http://www.w3.org/2000/svg" viewBox="0 0 19.31 16.62"><defs><style>.cls-1{fill:#333;}</style></defs><title>topbar3</title><path class="cls-1" d="M1250,68.92l-18.15-7.39a0.44,0.44,0,0,0-.6.5l3,15.05a0.92,0.92,0,0,0,.89.73,0.89,0.89,0,0,0,.51-0.16l3.59-2.48,0,0,2.51,2.78a0.44,0.44,0,0,0,.33.15l0.14,0a0.45,0.45,0,0,0,.3-0.39l0.26-4.92h0l7.1-2.15a0.9,0.9,0,0,0,.64-0.81A0.91,0.91,0,0,0,1250,68.92Zm-14.92,8V76.88l-2.63-13.39,0.09,0.09,9.12,8.82,0,0Zm6.77-3.53-0.17,3.18L1240,74.66l0,0,1.89-1.3v0.08Zm7.73-3.61-7.12,2.15,0,0-9.13-8.83,0.19,0.08,16.18,6.59Z" transform="translate(-1231.27 -61.51)"/></svg>