<?xml version="1.0" encoding="utf-8"?>
<!-- Generator: Adobe Illustrator 19.2.1, SVG Export Plug-In . SVG Version: 6.00 Build 0)  -->
<svg version="1.1" id="Layer_1" xmlns="http://www.w3.org/2000/svg" xmlns:xlink="http://www.w3.org/1999/xlink" x="0px" y="0px"
	 viewBox="0 0 19.4 17.2" style="enable-background:new 0 0 19.4 17.2;" xml:space="preserve">
<style type="text/css">
	.st0{fill:none;stroke:#333333;stroke-miterlimit:10;}
</style>
<title>topbar1</title>
<path class="st0" d="M2.4,2.4c1.8-1.9,4.8-1.9,6.7,0c0,0,0,0,0,0l0.3,0.3c0.1,0.1,0.2,0.1,0.3,0.1c0.1,0,0.2-0.1,0.3-0.1l0.3-0.3
	c1.8-1.9,4.8-2,6.7-0.2s2,4.8,0.2,6.7C17.2,8.9,17.1,9,17,9.1L10,16.2c-0.1,0.1-0.3,0.1-0.4,0L2.4,9.1C0.5,7.2,0.5,4.2,2.4,2.4
	C2.4,2.4,2.4,2.4,2.4,2.4L2.4,2.4L2.4,2.4z"/>
</svg>
