<svg id="כפתורים_תחתונים" data-name="כפתורים תחתונים" xmlns="http://www.w3.org/2000/svg" viewBox="0 0 32.86 32.86"><defs><style>.cls-1{fill:#f9e0d9;}.cls-2{fill:#333;}</style></defs><title>upload6</title><circle class="cls-1" cx="16.43" cy="16.17" r="15.12"/><path class="cls-2" d="M247.43,712.19a16.43,16.43,0,1,0,16.43,16.43,16.45,16.45,0,0,0-16.43-16.43h0Zm0,31.22a14.79,14.79,0,1,1,14.79-14.79,14.8,14.8,0,0,1-14.79,14.79h0Zm0,0" transform="translate(-231 -712.19)"/><path class="cls-2" d="M251.73,724.61l-6.3,6.26-2.3-2.31a0.82,0.82,0,1,0-1.17,1.15l2.87,2.89a0.82,0.82,0,0,0,1.16,0l6.88-6.84a0.82,0.82,0,1,0-1.15-1.16h0Zm0,0" transform="translate(-231 -712.19)"/></svg>