<svg id="כפתורים_תחתונים" data-name="כפתורים תחתונים" xmlns="http://www.w3.org/2000/svg" viewBox="0 0 29.98 29.98"><defs><style>.cls-1{fill:#f9e0d9;}.cls-2{fill:#333;}</style></defs><title>upload3</title><rect class="cls-1" x="0.48" y="0.48" width="29.5" height="29.5" rx="4.03" ry="4.03"/><path class="cls-2" d="M912.69,740.44a3.16,3.16,0,0,0,3.16,3.16h23.66a3.16,3.16,0,0,0,3.16-3.16V716.79a3.16,3.16,0,0,0-3.16-3.16H915.85a3.16,3.16,0,0,0-3.16,3.16v23.66Zm26.82,1.66H915.85a1.67,1.67,0,0,1-1.66-1.66v-4l5.68-5.68,4.86,4.86a0.75,0.75,0,0,0,1.06,0l8.77-8.77,6.6,6.6v6.95a1.67,1.67,0,0,1-1.66,1.66h0Zm-23.66-27h23.66a1.67,1.67,0,0,1,1.66,1.66v14.59l-6.08-6.07a0.75,0.75,0,0,0-1.06,0l-8.77,8.77-4.86-4.86a0.75,0.75,0,0,0-1.06,0l-5.15,5.15V716.79a1.67,1.67,0,0,1,1.66-1.66h0Zm0,0" transform="translate(-912.69 -713.62)"/><path class="cls-2" d="M922,725.64a3.82,3.82,0,1,0-3.82-3.82,3.82,3.82,0,0,0,3.82,3.82h0Zm0-6.13a2.32,2.32,0,1,1-2.32,2.32A2.32,2.32,0,0,1,922,719.5h0Zm0,0" transform="translate(-912.69 -713.62)"/></svg>