<svg id="כפתורים_תחתונים" data-name="כפתורים תחתונים" xmlns="http://www.w3.org/2000/svg" viewBox="0 0 31.45 31.45"><defs><style>.cls-1{fill:#f9e0d9;}.cls-2{fill:#333;}</style></defs><title>upload1</title><circle class="cls-1" cx="15.73" cy="15.9" r="15.12"/><path class="cls-2" d="M1034.22,744.34a15.73,15.73,0,1,0-15.73-15.73,15.75,15.75,0,0,0,15.73,15.73h0Zm0-29.88a14.16,14.16,0,1,1-14.16,14.16,14.17,14.17,0,0,1,14.16-14.16h0Zm0,0" transform="translate(-1018.49 -712.89)"/><path class="cls-2" d="M1036.3,736.45a5.14,5.14,0,0,1-3.66-1.52,0.7,0.7,0,1,1,1-1,3.78,3.78,0,1,0,5.34-5.34,0.7,0.7,0,0,1,1-1A5.18,5.18,0,0,1,1036.3,736.45Z" transform="translate(-1018.49 -712.89)"/><path class="cls-2" d="M1028.39,730.4a0.7,0.7,0,0,1-.5-0.21,5.18,5.18,0,0,1,7.32-7.32,0.7,0.7,0,1,1-1,1,3.78,3.78,0,0,0-5.34,5.34A0.7,0.7,0,0,1,1028.39,730.4Z" transform="translate(-1018.49 -712.89)"/><path class="cls-2" d="M1036.43,731.83a0.7,0.7,0,0,1-.5-0.21l-5-5a0.7,0.7,0,1,1,1-1l5,5A0.7,0.7,0,0,1,1036.43,731.83Z" transform="translate(-1018.49 -712.89)"/></svg>